# xmcd
#
# Track frame offsets:
#	150
#	19364
#	53636
#	73351
#	94699
#	112040
#	133576
#	145659
#	170677
#	193156
#	223266
#	239438
#	258350
#	277716
#
# Disc length: 3939 seconds
#
# Revision: 2
# Processed by: cddbd v1.5.2PL0 Copyright (c) Steve Scherf et al.
# Submitted via: EZCDAudioConverter 1.3.4.1
#
DISCID=d80f610e
DTITLE=Preservation Hall Jazz Band - 50th Anniversary Collection 4/4
DYEAR=2012
DGENRE=
TTITLE0=Tootie Ma Is A Big Fine Thing
TTITLE1=Bourbon Street Parade
TTITLE2=I'm Confessin'
TTITLE3=Le Petit Fleur
TTITLE4=One More 'Fore I Die
TTITLE5=Shake It And Break It
TTITLE6=C.C. Rider
TTITLE7=That's A Plenty
TTITLE8=Westlawn Dirge
TTITLE9=Who Threw The Whiskey In The Well?
TTITLE10=Peanut Vendor
TTITLE11=Trouble In Mind
TTITLE12=A Good Gal Is Hard To Find
TTITLE13=Precious Lord
EXTD=
EXTT0=
EXTT1=
EXTT2=
EXTT3=
EXTT4=
EXTT5=
EXTT6=
EXTT7=
EXTT8=
EXTT9=
EXTT10=
EXTT11=
EXTT12=
EXTT13=
PLAYORDER=
